<?xml version="1.0" encoding="UTF-8"?>
<svg id="Capa_2" data-name="Capa 2" xmlns="http://www.w3.org/2000/svg" xmlns:xlink="http://www.w3.org/1999/xlink" viewBox="0 0 383.63 94.89">
  <defs>
    <style>
      .cls-1 {
        fill: url(#Degradado_sin_nombre_21);
      }

      .cls-2 {
        fill: none;
        opacity: .43;
      }

      .cls-3 {
        fill: #9f9fe2;
      }
    </style>
    <linearGradient id="Degradado_sin_nombre_21" data-name="Degradado sin nombre 21" x1="22.33" y1="63.83" x2="48.82" y2="63.83" gradientUnits="userSpaceOnUse">
      <stop offset="0" stop-color="#9f9fe2"/>
      <stop offset="1" stop-color="#8484d1"/>
    </linearGradient>
  </defs>
  <g id="Capa_1-2" data-name="Capa 1">
    <g>
      <g>
        <g>
          <polygon class="cls-3" points="22.33 58.86 22.33 37.52 30.16 33 48.83 22.22 67.5 33 75.34 37.52 75.34 58.86 67.5 54.33 67.5 42.04 48.83 31.26 30.16 42.04 30.16 54.33 22.33 58.86"/>
          <path class="cls-3" d="m34.4,56.66l7.55-4.36c4.26-2.46,9.51-2.46,13.77,0l11.79,6.8,7.83,4.52v9.04s-7.83-4.52-7.83-4.52l-18.67-10.78h0s-.95-.55-.95-.55c-4.16-2.4-9.27-2.46-13.47-.17Z"/>
          <path class="cls-1" d="m22.33,72.68v-9.04s7.83-4.52,7.83-4.52l4.24-2.45c4.21-2.29,9.31-2.24,13.47.17l.95.55-7.83,4.52-10.83,6.25-7.83,4.52Z"/>
        </g>
        <rect class="cls-2" width="383.63" height="94.89"/>
      </g>
      <g>
        <path class="cls-3" d="m218.69,31.22h8.66c8.83,0,15.98,6.97,15.98,15.54s-6.75,15.54-15.09,15.54h-9.54v-31.07Zm4.22,3.82v23.35h4.62c6.39,0,11.58-5.19,11.58-11.63s-5.59-11.72-12.52-11.72h-3.68Z"/>
        <path class="cls-3" d="m250.91,53.24c.4,3.51,2.44,5.95,6.08,5.95,2.22,0,4.31-1.11,5.68-2.88l2.75,2.62c-1.86,2.09-4.79,3.91-8.43,3.91-6.7,0-10.12-4.75-10.12-10.43s3.86-9.94,9.41-9.94c6.21,0,9.28,5.1,9.28,9.9,0,.36,0,.58-.04.89h-14.6Zm.22-3.37h10.21c-.27-1.78-2.04-3.95-5.06-3.95-2.57,0-4.44,1.51-5.15,3.95Z"/>
        <path class="cls-3" d="m269.42,48.58c-.67-1.42-2.4-4.84-2.8-5.59h4.22c.67,1.33,1.29,2.71,1.95,4.04l2.04,4.26c.8,1.69,1.51,3.95,1.55,4.44h.18c.04-.49.75-2.75,1.55-4.44l2.04-4.26c.62-1.29,1.29-2.71,1.95-4.04h4.22c-.4.75-2.13,4.17-2.8,5.59l-7.06,14.43-7.06-14.43Z"/>
        <path class="cls-3" d="m291.48,53.24c.4,3.51,2.44,5.95,6.08,5.95,2.22,0,4.31-1.11,5.68-2.88l2.75,2.62c-1.86,2.09-4.79,3.91-8.43,3.91-6.7,0-10.12-4.75-10.12-10.43s3.86-9.94,9.41-9.94c6.21,0,9.28,5.1,9.28,9.9,0,.36,0,.58-.04.89h-14.6Zm.22-3.37h10.21c-.27-1.78-2.04-3.95-5.06-3.95-2.57,0-4.44,1.51-5.15,3.95Z"/>
        <path class="cls-3" d="m314.12,27.01c0,.84-.04,3.77-.04,5.33v24.63c0,1.55.04,4.48.04,5.33h-4.08c0-.84.04-3.77.04-5.33v-24.63c0-1.55-.04-4.48-.04-5.33h4.08Z"/>
        <path class="cls-3" d="m338.31,52.66c0,5.64-4.57,10.16-10.21,10.16s-10.17-4.53-10.17-10.16,4.53-10.21,10.17-10.21,10.21,4.57,10.21,10.21Zm-16.38,0c0,3.55,2.75,6.44,6.17,6.44s6.21-2.88,6.21-6.44-2.8-6.48-6.21-6.48-6.17,2.89-6.17,6.48Z"/>
        <path class="cls-3" d="m342.17,72.06c0-.84.04-3.77.04-5.33v-20.99c1.55-1.29,4.53-3.29,8.79-3.29,6.13,0,10.3,4.39,10.3,10.3s-3.91,10.08-9.59,10.08c-2.57,0-4.39-.75-5.55-1.86l-.18.09c.13.31.22,1.15.22,1.95v3.73c0,1.55.04,4.48.04,5.33h-4.08Zm4.04-15.58c.67.98,2.44,2.62,5.33,2.62,3.42,0,5.77-2.57,5.77-6.35s-2.57-6.57-6.3-6.57c-2.04,0-3.86.8-4.79,1.42v8.88Z"/>
        <path class="cls-3" d="m120.59,57.42h-16.56l-.53,1.24c-.4.84-.93,2.04-1.38,3.11h-4.57c.36-.75,1.6-3.42,2.22-4.84l12.38-27.92,12.74,27.92c.62,1.42,1.91,4.08,2.22,4.84h-4.57c-.44-1.06-.98-2.26-1.38-3.11l-.58-1.24Zm-3.2-3.91c.84,0,1.42.18,1.55.27l.09-.18c-.09-.04-.31-.27-.71-1.15l-4.93-10.79c-.89-1.91-1.11-3.11-1.11-3.33h-.18c0,.22-.22,1.42-1.07,3.33l-4.79,10.79c-.31.71-.67,1.11-.75,1.15l.09.18c.09-.09.75-.27,1.55-.27h10.25Z"/>
        <path class="cls-3" d="m141.67,46.59c-.4-.4-1.2-.8-1.95-.8-2.35,0-3.95,2.22-3.95,4.44v6.21c0,1.55.04,4.48.04,5.33h-4.08c0-.84.04-3.77.04-5.33v-8.66c0-1.55-.04-4.48-.04-5.33h3.95c0,.89,0,1.91-.13,2.49l.22.09c.53-1.24,2.44-2.97,4.84-2.97,1.42,0,2.84.58,3.28,1.11l-2.22,3.42Z"/>
        <path class="cls-3" d="m151.97,41.13v1.33c1.29,0,2.57-.04,3.11-.04v4c-.53,0-2.57-.04-3.11-.04v10.08c0,1.55.04,4.48.04,5.33h-4.08c0-.84.04-3.77.04-5.33v-15.31c0-1.55-.04-4.48-.04-5.33h4.08c0,.84-.04,3.77-.04,5.33Z"/>
        <path class="cls-3" d="m176.34,47.79v12.16c-1.33,1.15-4.35,2.35-8.17,2.35-6.52,0-9.14-3.2-9.14-7.5v-7.01c0-1.55-.04-4.48-.04-5.33h4.08c0,.84-.04,3.77-.04,5.33v6.35c0,2.71,1.33,4.62,5.15,4.62,1.73,0,3.2-.44,4.17-.89v-10.08c0-1.55-.04-4.48-.04-5.33h4.08c0,.84-.04,3.77-.04,5.33Z"/>
        <path class="cls-3" d="m190.15,46.59c-.4-.4-1.2-.8-1.95-.8-2.35,0-3.95,2.22-3.95,4.44v6.21c0,1.55.04,4.48.04,5.33h-4.08c0-.84.04-3.77.04-5.33v-8.66c0-1.55-.04-4.48-.04-5.33h3.95c0,.89,0,1.91-.13,2.49l.22.09c.53-1.24,2.44-2.97,4.84-2.97,1.42,0,2.84.58,3.28,1.11l-2.22,3.42Z"/>
        <path class="cls-3" d="m213.54,52.14c0,5.64-4.57,10.16-10.21,10.16s-10.16-4.53-10.16-10.16,4.53-10.21,10.16-10.21,10.21,4.57,10.21,10.21Zm-16.38,0c0,3.55,2.75,6.44,6.17,6.44s6.21-2.88,6.21-6.44-2.8-6.48-6.21-6.48-6.17,2.89-6.17,6.48Z"/>
      </g>
    </g>
  </g>
</svg>